<?xml version="1.0" encoding="UTF-8" standalone="no"?>
<svg
   xmlns:dc="http://purl.org/dc/elements/1.1/"
   xmlns:cc="http://creativecommons.org/ns#"
   xmlns:rdf="http://www.w3.org/1999/02/22-rdf-syntax-ns#"
   xmlns:svg="http://www.w3.org/2000/svg"
   xmlns="http://www.w3.org/2000/svg"
   xmlns:sodipodi="http://sodipodi.sourceforge.net/DTD/sodipodi-0.dtd"
   xmlns:inkscape="http://www.inkscape.org/namespaces/inkscape"
   inkscape:version="1.0 (4035a4fb49, 2020-05-01)"
   sodipodi:docname="Hochschule Hildesheim-Holzminden-Göttingen Logo 2020.svg"
   id="svg26"
   style="color:#2f2abf;line-height:0px;text-decoration:none;text-decoration-line:none;text-decoration-style:solid;text-decoration-color:#2f2abf"
   version="1.1"
   preserveAspectRatio="xMidYMid meet"
   viewBox="0 0 400 117.95841"
   height="117.95841"
   width="400"
   class="primary-menu__logo is-international">
  <metadata
     id="metadata32">
    <rdf:RDF>
      <cc:Work
         rdf:about="">
        <dc:format>image/svg+xml</dc:format>
        <dc:type
           rdf:resource="http://purl.org/dc/dcmitype/StillImage" />
        <dc:title></dc:title>
      </cc:Work>
    </rdf:RDF>
  </metadata>
  <defs
     id="defs30" />
  <sodipodi:namedview
     inkscape:current-layer="svg26"
     inkscape:window-maximized="1"
     inkscape:window-y="-8"
     inkscape:window-x="-8"
     inkscape:cy="96"
     inkscape:cx="264.5"
     inkscape:zoom="1.7750473"
     fit-margin-bottom="0"
     fit-margin-right="0"
     fit-margin-left="0"
     fit-margin-top="0"
     showgrid="false"
     id="namedview28"
     inkscape:window-height="837"
     inkscape:window-width="1600"
     inkscape:pageshadow="2"
     inkscape:pageopacity="0"
     guidetolerance="10"
     gridtolerance="10"
     objecttolerance="10"
     borderopacity="1"
     bordercolor="#666666"
     pagecolor="#ffffff" />
  <polygon
     transform="scale(0.75614367)"
     id="polygon2"
     style="color:#2f2abf;line-height:0px;text-decoration:none;text-decoration-line:none;text-decoration-style:solid;text-decoration-color:#2f2abf;fill:#3b3d40;fill-rule:evenodd;stroke:none;stroke-width:1"
     points="0,0 0,78 175,78 175,0 "
     fill="#3B3D40"
     class="logo-background-color" />
  <path
     id="path4"
     style="color:#2f2abf;line-height:0px;text-decoration:none;text-decoration-line:none;text-decoration-style:solid;text-decoration-color:#2f2abf;fill:#ffffff;fill-rule:evenodd;stroke:none;stroke-width:0.756144"
     fill="#FFFFFF"
     class="logo-foreground-color"
     d="M 15.815123,31.529225 H 29.952741 V 49.149338 H 35.93535 V 10.586011 H 29.952741 V 25.992439 H 15.815123 V 10.586011 H 9.8298677 V 49.149338 H 15.815123 Z M 48.388053,10.586011 37.620265,49.149338 h 6.527032 l 4.004915,-14.35206 h 9.297996 L 56.133384,29.289376 H 49.68673 l 5.228355,-18.703365 z m 7.068809,0 9.300643,38.563327 h 6.527032 l 7.35138,-31.250888 7.333081,31.250888 h 6.524764 L 101.79433,10.586011 H 95.267297 L 89.149338,41.501172 81.888847,10.586011 H 75.361966 L 68.114329,41.501172 61.981323,10.586011 Z m 45.735578,18.705936 11.96597,19.857391 h 7.06843 L 108.26389,29.29724 119.95992,10.586011 h -7.07372 z" />
  <path
     id="path8"
     style="color:#2f2abf;line-height:0px;text-decoration:none;text-decoration-line:none;text-decoration-style:solid;text-decoration-color:#2f2abf;fill:#3b3d40;fill-rule:evenodd;stroke:none;stroke-width:0.756144"
     fill="#3B3D40"
     class="logo-background-color"
     d="M 137.06692,39.319471 H 253.4896 V 63.893308 H 137.06692 Z M 31.00189,63.893308 H 400 V 88.467297 H 31.00189 Z M 87.736106,117.95841 V 93.384499 H 366.95274 v 24.573911 z" />
  <path
     d="M 151.47826,57.299055 V 45.283921 h -2.46503 v 4.667209 h -3.47145 v -4.667209 h -2.41286 v 12.015134 h 2.41286 v -5.361429 h 3.47145 v 5.361429 z m 12.67146,-6.066064 c 0,-3.772772 -1.97581,-6.107677 -5.18715,-6.107677 -0.90586,0 -1.79055,0.208009 -2.50057,0.590225 -1.7361,0.946442 -2.72589,3.023939 -2.72589,5.618858 0,1.76549 0.47032,3.286548 1.38903,4.461822 0.91872,1.190851 2.09906,1.690057 3.92363,1.690057 1.00794,0 1.68393,-0.153422 2.4121,-0.5538 1.75198,-0.946465 2.68885,-2.984952 2.68885,-5.699485 z m -2.7932,0.065 c 0,3.062911 -0.71002,4.339584 -2.39395,4.339584 -0.57391,0 -1.06238,-0.135198 -1.44348,-0.410813 -0.72816,-0.52 -1.07599,-1.817466 -1.07599,-3.89237 0,-1.456068 0.19055,-2.509119 0.6087,-3.289149 0.34707,-0.63963 1.05708,-1.05045 1.87448,-1.05045 1.28695,0 1.92892,0.915244 2.11947,1.521066 0.20869,0.673437 0.31077,1.554873 0.31077,2.782132 z m 13.28015,5.083252 -1.11455,-1.518488 c -0.70775,0.566805 -1.34972,0.77482 -2.06503,0.77482 -1.03894,0 -1.83819,-0.462835 -2.32363,-1.344272 -0.36522,-0.657845 -0.50662,-1.578223 -0.50662,-3.218926 0,-1.404061 0.20945,-2.402511 0.68204,-3.09414 0.43328,-0.63963 1.23176,-1.037444 2.04613,-1.037444 0.67902,0 1.32098,0.223607 1.92665,0.670828 l 1.09414,-1.638072 c -0.65784,-0.57203 -1.85633,-0.954244 -3.05482,-0.954244 -1.94707,0 -3.6809,1.040043 -4.6155,2.784724 -0.55576,1.037452 -0.81663,2.230904 -0.81663,3.736371 0,1.765497 0.48544,3.213739 1.45633,4.30319 0.98979,1.125823 2.27372,1.661475 3.94253,1.661475 1.36787,0 2.39395,-0.348431 3.34896,-1.125822 z m 10.46881,0.917807 V 45.283921 h -2.46427 v 4.667209 h -3.47524 v -4.667209 h -2.40907 v 12.015134 h 2.40907 v -5.361429 h 3.47524 v 5.361429 z m 11.1811,-3.785785 c 0,-1.783659 -1.07826,-3.042117 -3.05407,-3.58034 l -1.45935,-0.397815 c -1.00794,-0.278215 -1.33687,-0.587629 -1.33687,-1.209058 0,-0.816431 0.69188,-1.383259 1.68167,-1.383259 0.90586,0 1.72249,0.254813 2.81361,0.915236 l 1.14631,-1.729074 c -1.06011,-0.759236 -2.55349,-1.211656 -4.02797,-1.211656 -2.5535,0 -4.32061,1.52107 -4.32061,3.718167 0,0.67603 0.1724,1.297459 0.50359,1.835682 0.431,0.722836 1.17732,1.193459 2.37581,1.521074 l 1.33686,0.363992 c 1.07826,0.293838 1.57883,0.774821 1.57883,1.552288 0,1.073875 -0.72817,1.645898 -2.11721,1.645898 -1.21588,0 -2.18752,-0.37966 -3.31493,-0.967259 l -0.90057,1.882495 c 1.21361,0.688998 2.738,1.089452 4.11116,1.089452 3.00264,0 4.98374,-1.609452 4.98374,-4.045823 z m 10.30699,2.867978 -1.10926,-1.518488 c -0.71002,0.566805 -1.35274,0.77482 -2.06503,0.77482 -1.04196,0 -1.84348,-0.462835 -2.32665,-1.344272 -0.36522,-0.657845 -0.50359,-1.578223 -0.50359,-3.218926 0,-1.404061 0.20869,-2.402511 0.67599,-3.09414 0.43327,-0.63963 1.23478,-1.037444 2.04688,-1.037444 0.68128,0 1.32098,0.223607 1.92968,0.670828 l 1.09338,-1.638072 c -0.65784,-0.57203 -1.85633,-0.954244 -3.05406,-0.954244 -1.9448,0 -3.67864,1.040043 -4.6155,2.784724 -0.55653,1.037452 -0.81513,2.230904 -0.81513,3.736371 0,1.765497 0.48318,3.213739 1.45407,4.30319 0.99206,1.125823 2.27145,1.661475 3.94253,1.661475 1.36786,0 2.39395,-0.348431 3.34669,-1.125822 z m 10.12401,0.917807 V 45.283921 h -2.462 v 4.667209 h -3.47448 v -4.667209 h -2.40983 v 12.015134 h 2.40983 v -5.361429 h 3.47448 v 5.361429 z m 11.42382,-3.926201 v -8.088933 h -2.46427 v 7.693773 c 0,0.639622 0,0.811191 -0.034,1.071228 -0.10435,0.884008 -0.78336,1.401437 -1.84045,1.401437 -0.80152,0 -1.37316,-0.293762 -1.6552,-0.829414 -0.13535,-0.260038 -0.2034,-0.691644 -0.2034,-1.435236 v -7.901788 h -2.48242 v 8.369765 c 0,1.157051 0.12249,1.640681 0.52173,2.264726 0.676,1.053006 2.02874,1.604235 3.87146,1.604235 2.60265,0 3.78299,-1.310397 4.09603,-2.26208 0.17013,-0.52 0.19055,-0.743592 0.19055,-1.887713 z m 9.5448,1.921513 h -4.3206 V 45.283921 h -2.48016 v 12.015134 h 6.36749 z m 8.6828,2.004688 v -2.072288 h -4.5656 v -3.218941 h 3.41928 v -1.968287 h -3.41928 v -2.787327 h 4.0983 l 0.31078,-1.968291 h -6.87411 V 57.29905 Z"
     style="color:#2f2abf;line-height:0px;text-decoration:none;text-decoration-line:none;text-decoration-style:solid;text-decoration-color:#2f2abf;fill:#ffffff;fill-rule:evenodd;stroke:none;stroke-width:0.756144"
     id="path10" />
  <path
     d="M 102.42556,111.21353 V 99.198412 h -2.464426 v 4.667218 h -3.472136 v -4.667218 h -2.412174 v 12.015118 h 2.412174 v -5.36143 h 3.472136 v 5.36143 z m 4.93149,0 v -9.06139 l -2.32605,0.364 v 8.69739 z m 0.27675,-11.289674 c 0,-0.79569 -0.62397,-1.437882 -1.40454,-1.437882 -0.79886,0 -1.45935,0.642192 -1.45935,1.437882 0,0.793044 0.64226,1.435234 1.4254,1.435234 0.7963,0 1.43849,-0.64219 1.43849,-1.435234 z m 5.90268,11.255884 -0.39924,-1.38329 c -0.12023,0.0338 -0.1724,0.0338 -0.26163,0.0338 -0.19054,0 -0.38087,-0.0858 -0.46699,-0.24182 -0.13837,-0.24174 -0.1566,-0.44975 -0.1566,-1.97089 v -6.89807 c 0,-1.24809 -0.034,-1.814895 -0.12272,-2.298525 l -2.37565,0.535652 c 0.0861,0.795615 0.12264,1.502833 0.12264,2.662533 v 6.60431 c 0,1.26102 0.034,1.53406 0.20628,1.98647 0.27932,0.74102 1.07819,1.21164 2.06503,1.21164 0.50382,0 0.98964,-0.0858 1.38888,-0.24181 z m 8.81891,0.0338 c -0.15728,-0.34578 -0.32892,-1.05565 -0.32892,-3.23455 v -9.196598 l -2.30776,-0.361437 v 3.042195 c 0,0.52 0.0333,1.12317 0.0703,1.31304 -0.4363,-0.34586 -0.93762,-0.50185 -1.58186,-0.50185 -2.2586,0 -3.80113,1.90072 -3.80113,4.66465 0,2.7535 1.42231,4.49815 3.67788,4.49815 0.80151,0 1.47751,-0.24182 2.05218,-0.74102 0.034,0.24181 0.068,0.37966 0.13837,0.51742 z m -2.60341,-2.29852 c -0.22381,0.27826 -0.71001,0.57202 -1.14555,0.57202 -1.21664,0 -1.61588,-0.62397 -1.61588,-2.52469 0,-1.9761 0.45142,-2.83932 1.49565,-2.83932 0.41739,0 0.83251,0.19244 1.26578,0.57203 z m 12.0121,-1.40144 v -0.53565 c 0,-1.84862 -0.36295,-3.04469 -1.18034,-3.87153 -0.57164,-0.58768 -1.54555,-0.93603 -2.56862,-0.93603 -1.18034,0 -2.06503,0.38215 -2.79622,1.19085 -0.77807,0.86321 -1.10699,1.92408 -1.10699,3.51274 0,2.78216 1.64764,4.5814 4.19811,4.5814 1.25066,0 2.3259,-0.40045 3.35198,-1.22465 l -0.90359,-1.38329 c -0.71229,0.58503 -1.45936,0.88144 -2.25784,0.88144 -1.19849,0 -1.87448,-0.77739 -1.87448,-2.14511 v -0.0702 z m -2.41285,-1.6927 h -2.69112 v -0.0338 c 0,-1.23244 0.5036,-1.92144 1.38904,-1.92144 0.46956,0 0.79849,0.17157 1.02609,0.51743 0.20869,0.33021 0.27599,0.67599 0.27599,1.33384 z m 11.11153,2.59236 c 0,-0.58767 -0.15728,-1.08945 -0.4862,-1.50291 -0.31304,-0.40038 -0.67599,-0.73058 -1.76938,-1.0062 l -1.07826,-0.27561 c -0.81512,-0.21067 -1.11002,-0.44983 -1.11002,-0.89966 0,-0.51743 0.45218,-0.86322 1.13044,-0.86322 0.65784,0 1.30057,0.1898 2.18525,0.63963 l 0.76522,-1.55486 c -0.81739,-0.39789 -1.75198,-0.82949 -3.17731,-0.82949 -2.06806,0 -3.43592,1.15705 -3.43592,2.88612 0,0.56945 0.19055,1.21172 0.50132,1.59131 0.3138,0.37958 1.04197,0.79561 1.63176,0.89966 l 1.04197,0.18979 c 0.93988,0.17421 1.37315,0.48363 1.37315,1.08945 0,0.56945 -0.52249,1.00363 -1.18261,1.00363 -1.00794,0 -2.24045,-0.57202 -2.95047,-1.00363 l -0.83251,1.69527 c 1.30283,0.67085 2.4983,1.01407 3.59244,1.01407 2.27599,0 3.80113,-1.2403 3.80113,-3.07335 z m 9.20227,2.8003 v -6.19085 c 0,-0.84763 -0.0522,-1.14147 -0.2276,-1.64068 -0.27675,-0.78003 -1.17732,-1.26109 -2.30775,-1.26109 -0.90057,0 -1.91078,0.37701 -2.51645,0.95168 0,-0.10405 0.034,-0.47062 0.034,-0.74367 v -1.76544 c 0,-0.847639 -0.0522,-1.677128 -0.15652,-2.160682 l -2.37581,0.553799 c 0.10208,0.361437 0.1724,1.193423 0.1724,2.020263 v 10.23667 h 2.35993 v -6.34691 c 0.51947,-0.46541 1.26578,-0.81119 1.84045,-0.81119 0.66087,0 0.90359,0.32763 0.90359,1.20907 v 5.94903 z m 9.39055,-3.69996 v -0.53565 c 0,-1.84862 -0.36295,-3.04469 -1.18034,-3.87153 -0.57165,-0.58768 -1.54556,-0.93603 -2.56862,-0.93603 -1.18034,0 -2.06503,0.38215 -2.7932,1.19085 -0.78109,0.86321 -1.11229,1.92408 -1.11229,3.51274 0,2.78216 1.64689,4.5814 4.20038,4.5814 1.25066,0 2.3259,-0.40045 3.34972,-1.22465 l -0.90132,-1.38329 c -0.71229,0.58503 -1.45936,0.88144 -2.25785,0.88144 -1.19849,0 -1.87448,-0.77739 -1.87448,-2.14511 v -0.0702 z m -2.41286,-1.6927 h -2.69111 v -0.0338 c 0,-1.23244 0.50359,-1.92144 1.38903,-1.92144 0.46957,0 0.79849,0.17157 1.02609,0.51743 0.20567,0.33021 0.27599,0.67599 0.27599,1.33384 z m 6.9104,5.39266 v -9.06139 l -2.3259,0.364 v 8.69739 z m 0.27675,-11.289674 c 0,-0.79569 -0.62382,-1.437882 -1.40719,-1.437882 -0.79621,0 -1.45633,0.642192 -1.45633,1.437882 0,0.793044 0.64499,1.435234 1.42306,1.435234 0.79849,0 1.44046,-0.64219 1.44046,-1.435234 z m 13.66427,11.289674 v -6.29489 c 0,-1.209 -0.15652,-1.72643 -0.66314,-2.15811 -0.39697,-0.34579 -1.05482,-0.5538 -1.74896,-0.5538 -0.97391,0 -1.70208,0.32764 -2.51947,1.15448 -0.10435,-0.15085 -0.22457,-0.30684 -0.34707,-0.43161 -0.46956,-0.48106 -1.07524,-0.72287 -1.80416,-0.72287 -0.81663,0 -1.5637,0.31198 -2.17467,0.89966 -0.0832,-0.44983 -0.15349,-0.65785 -0.31077,-0.89966 l -2.0983,0.56945 c 0.24499,0.43418 0.33119,0.98541 0.33119,2.26465 v 6.1727 h 2.27146 v -6.44831 c 0.50359,-0.44976 1.09338,-0.676 1.52967,-0.676 0.64197,0 0.79849,0.2574 0.79849,1.36764 v 5.75667 h 2.2034 v -6.36249 c 0.50435,-0.44983 1.11229,-0.74359 1.54556,-0.74359 0.6087,0 0.73119,0.20801 0.73119,1.26102 v 5.84506 z m 8.26011,-13.208615 h -1.52741 l -4.64952,15.868585 h 1.52741 z M 196.1913,111.21353 V 99.198412 h -2.46427 v 4.667218 h -3.47448 v -4.667218 h -2.40983 v 12.015118 h 2.40983 v -5.36143 h 3.47448 v 5.36143 z m 10.03252,-4.4592 c 0,-1.44045 -0.31002,-2.40771 -1.02306,-3.23456 -0.7622,-0.89701 -1.75199,-1.33126 -3.02307,-1.33126 -2.39622,0 -3.98941,1.84869 -3.98941,4.63606 0,2.78208 1.57958,4.57876 3.98941,4.57876 1.37543,0 2.26087,-0.46541 2.9346,-1.22465 0.76219,-0.86579 1.11153,-1.90329 1.11153,-3.42435 z m -2.53233,-0.0208 c 0,2.09573 -0.43327,2.99532 -1.44045,2.99532 -0.45217,0 -0.97391,-0.24182 -1.18261,-0.73059 -0.19055,-0.44461 -0.29565,-1.2065 -0.29565,-2.22571 0,-0.88408 0.0892,-1.50805 0.24348,-1.97353 0.19281,-0.5538 0.64196,-0.89959 1.19773,-0.89959 0.41815,0 0.78336,0.17422 1.01021,0.46798 0.31077,0.39781 0.46729,1.1727 0.46729,2.36612 z m 7.75879,4.44621 -0.39924,-1.38329 c -0.12023,0.0338 -0.17467,0.0338 -0.26087,0.0338 -0.19055,0 -0.3811,-0.0858 -0.4673,-0.24182 -0.13837,-0.24174 -0.15652,-0.44975 -0.15652,-1.97089 v -6.89807 c 0,-1.24809 -0.034,-1.814895 -0.12249,-2.298525 l -2.37581,0.535652 c 0.0862,0.795615 0.1225,1.502833 0.1225,2.662533 v 6.60431 c 0,1.26102 0.034,1.53406 0.20643,1.98647 0.27901,0.74102 1.07523,1.21164 2.06502,1.21164 0.5036,0 0.98904,-0.0858 1.38828,-0.24181 z m 8.40378,-1.57309 h -4.08317 l 3.92665,-5.65527 v -1.58866 h -6.59735 v 1.62246 h 3.83516 l -4.18223,5.79569 v 1.43266 h 6.54518 z m 13.24386,1.60688 v -6.29489 c 0,-1.209 -0.15425,-1.72643 -0.65784,-2.15811 -0.39925,-0.34579 -1.06012,-0.5538 -1.75199,-0.5538 -0.97316,0 -1.70208,0.32764 -2.51871,1.15448 -0.10738,-0.15085 -0.2276,-0.30684 -0.34783,-0.43161 -0.46957,-0.48106 -1.07524,-0.72287 -1.8034,-0.72287 -0.81739,0 -1.56371,0.31198 -2.1724,0.89966 -0.0862,-0.44983 -0.15653,-0.65785 -0.31305,-0.89966 l -2.10132,0.56945 c 0.24802,0.43418 0.33346,0.98541 0.33346,2.26465 v 6.1727 h 2.27145 v -6.44831 c 0.50435,-0.44976 1.09112,-0.676 1.52439,-0.676 0.64802,0 0.80454,0.2574 0.80454,1.36764 v 5.75667 h 2.20038 v -6.36249 c 0.50661,-0.44983 1.11531,-0.74359 1.54858,-0.74359 0.60794,0 0.73043,0.20801 0.73043,1.26102 v 5.84506 z m 4.93157,0 v -9.06139 l -2.32363,0.364 v 8.69739 z m 0.27675,-11.289674 c 0,-0.79569 -0.62382,-1.437882 -1.40492,-1.437882 -0.79848,0 -1.45633,0.642192 -1.45633,1.437882 0,0.793044 0.6397,1.435234 1.42306,1.435234 0.79622,0 1.43819,-0.64219 1.43819,-1.435234 z m 9.33837,11.289674 v -6.46646 c 0,-0.55388 -0.0499,-0.93346 -0.1724,-1.26631 -0.27675,-0.7566 -1.14329,-1.27403 -2.13308,-1.27403 -0.52476,0 -1.12741,0.13784 -1.59773,0.37958 -0.3811,0.20802 -0.67902,0.41603 -1.02609,0.65785 0,-0.36401 -0.12022,-0.74624 -0.32892,-1.1076 l -2.062,0.5876 c 0.20567,0.59024 0.31077,1.31569 0.31077,2.0775 v 6.41187 h 2.32287 v -6.25844 c 0.54065,-0.48363 1.14859,-0.79569 1.61588,-0.79569 0.61097,0 0.78337,0.29126 0.78337,1.29746 v 5.75667 z m 9.51531,0 c -0.15879,-0.34578 -0.33119,-1.05565 -0.33119,-3.23455 v -9.196598 l -2.30548,-0.361437 v 3.042195 c 0,0.52 0.034,1.12317 0.068,1.31304 -0.43327,-0.34586 -0.93761,-0.50185 -1.57958,-0.50185 -2.25558,0 -3.80113,1.90072 -3.80113,4.66465 0,2.7535 1.42306,4.49815 3.6809,4.49815 0.79622,0 1.47524,-0.24182 2.04462,-0.74102 0.0386,0.24181 0.0726,0.37966 0.14064,0.51742 z m -2.60264,-2.29852 c -0.22458,0.27826 -0.71531,0.57202 -1.14858,0.57202 -1.21437,0 -1.61361,-0.62397 -1.61361,-2.52469 0,-1.9761 0.45141,-2.83932 1.4964,-2.83932 0.41437,0 0.83252,0.19244 1.26579,0.57203 z m 11.66427,-1.40144 v -0.53565 c 0,-1.84862 -0.36522,-3.04469 -1.18034,-3.87153 -0.57391,-0.58768 -1.5448,-0.93603 -2.56862,-0.93603 -1.18261,0 -2.0673,0.38215 -2.79319,1.19085 -0.78337,0.86321 -1.11229,1.92408 -1.11229,3.51274 0,2.78216 1.6499,4.5814 4.19811,4.5814 1.25293,0 2.32892,-0.40045 3.35198,-1.22465 l -0.90359,-1.38329 c -0.71229,0.58503 -1.45633,0.88144 -2.25558,0.88144 -1.19773,0 -1.87448,-0.77739 -1.87448,-2.14511 v -0.0702 z m -2.4121,-1.6927 h -2.69187 v -0.0338 c 0,-1.23244 0.50435,-1.92144 1.38904,-1.92144 0.46956,0 0.79924,0.17157 1.02079,0.51743 0.21172,0.33021 0.28204,0.67599 0.28204,1.33384 z m 11.24613,5.39266 v -6.46646 c 0,-0.55388 -0.0491,-0.93346 -0.17165,-1.26631 -0.27675,-0.7566 -1.14404,-1.27403 -2.13308,-1.27403 -0.52249,0 -1.12817,0.13784 -1.59773,0.37958 -0.38412,0.20802 -0.67902,0.41603 -1.02609,0.65785 0,-0.36401 -0.12022,-0.74624 -0.32892,-1.1076 l -2.06503,0.5876 c 0.2087,0.59024 0.31304,1.31569 0.31304,2.0775 v 6.41187 h 2.32363 v -6.25844 c 0.54065,-0.48363 1.14859,-0.79569 1.61891,-0.79569 0.60567,0 0.78034,0.29126 0.78034,1.29746 v 5.75667 z m 8.2654,-13.208615 h -1.52438 l -4.6518,15.868585 h 1.52666 z m 10.9724,12.277805 v -5.74109 h -4.66994 l 0.31531,1.96567 h 1.84121 v 2.73792 c -0.4,0.20544 -0.83554,0.29126 -1.37315,0.29126 -0.78337,0 -1.44121,-0.23924 -1.89339,-0.67342 -0.60794,-0.60325 -0.90283,-1.71349 -0.90283,-3.42177 0,-1.79932 0.20869,-3.09672 1.02306,-3.87675 0.41815,-0.39789 1.02609,-0.60325 1.73913,-0.60325 0.91871,0 1.7361,0.29383 2.51644,0.93345 l 1.28469,-1.50548 c -1.06313,-0.91788 -2.37882,-1.38064 -3.83516,-1.38064 -1.14858,0 -2.05217,0.259962 -2.93686,0.847637 -1.68393,1.118033 -2.51418,2.919923 -2.51418,5.460193 0,1.79932 0.39395,3.08113 1.28393,4.20438 0.96862,1.24288 2.30549,1.83055 4.11191,1.83055 1.42533,0 2.78034,-0.34586 4.00983,-1.06866 z m 9.86087,-3.52839 c 0,-1.44045 -0.31077,-2.40771 -1.02382,-3.23456 -0.76219,-0.89701 -1.75425,-1.33126 -3.02003,-1.33126 -2.39698,0 -3.99169,1.84869 -3.99169,4.63606 0,2.78208 1.57883,4.57876 3.99169,4.57876 1.37315,0 2.25784,-0.46541 2.93383,-1.22465 0.7622,-0.86579 1.11002,-1.90329 1.11002,-3.42435 z m -2.53232,-0.0208 c 0,2.09573 -0.43327,2.99532 -1.44424,2.99532 -0.44839,0 -0.97315,-0.24182 -1.17958,-0.73059 -0.19055,-0.44461 -0.2949,-1.2065 -0.2949,-2.22571 0,-0.88408 0.0862,-1.50805 0.24273,-1.97353 0.19054,-0.5538 0.64196,-0.89959 1.19848,-0.89959 0.41739,0 0.78261,0.17422 1.01021,0.46798 0.31078,0.39781 0.4673,1.1727 0.4673,2.36612 z m -1.99773,-6.50026 c 0,-0.722873 -0.5898,-1.328695 -1.30208,-1.328695 -0.72893,0 -1.35501,0.605822 -1.35501,1.328695 0,0.72802 0.60567,1.33127 1.32098,1.33127 0.72817,0 1.33611,-0.60325 1.33611,-1.33127 z m 3.66276,0 c 0,-0.722873 -0.5898,-1.328695 -1.30208,-1.328695 -0.72893,0 -1.35501,0.605822 -1.35501,1.328695 0,0.72802 0.60794,1.33127 1.32098,1.33127 0.72817,0 1.33611,-0.60325 1.33611,-1.33127 z m 7.31039,10.79047 -0.30019,-1.38064 c -0.41285,0.11698 -0.62155,0.17157 -0.83024,0.17157 -0.80151,0 -1.00567,-0.29384 -1.00567,-1.41709 v -4.4462 h 1.49111 l 0.59206,-1.58866 h -2.08317 c 0,-0.89958 0.0499,-1.86684 0.13837,-2.683325 l -2.35992,0.590245 c -0.0862,0.65785 -0.0862,1.2273 -0.0862,2.09308 h -0.88469 v 1.58866 h 0.88469 v 4.80764 c 0,0.81383 0.0136,0.98548 0.15652,1.36763 0.27675,0.7749 1.21134,1.2949 2.39395,1.2949 0.60567,0 1.21437,-0.12219 1.89338,-0.39781 z m 6.44008,0 -0.2949,-1.38064 c -0.41814,0.11698 -0.62684,0.17157 -0.83554,0.17157 -0.79621,0 -1.00491,-0.29384 -1.00491,-1.41709 v -4.4462 h 1.49036 l 0.59282,-1.58866 h -2.08318 c 0,-0.89958 0.0522,-1.86684 0.13837,-2.683325 l -2.35992,0.590245 c -0.0862,0.65785 -0.0862,1.2273 -0.0862,2.09308 h -0.88545 v 1.58866 h 0.88545 v 4.80764 c 0,0.81383 0.0181,0.98548 0.15652,1.36763 0.27675,0.7749 1.21361,1.2949 2.39395,1.2949 0.60794,0 1.21361,-0.12219 1.89263,-0.39781 z m 4.40907,0.18979 v -9.06139 l -2.3259,0.364 v 8.69739 z m 0.27448,-11.289674 c 0,-0.79569 -0.62155,-1.437882 -1.40189,-1.437882 -0.79924,0 -1.45709,0.642192 -1.45709,1.437882 0,0.793044 0.64273,1.435234 1.4208,1.435234 0.79849,0 1.43818,-0.64219 1.43818,-1.435234 z m 9.25747,11.289674 v -6.46646 c 0,-0.55388 -0.0522,-0.93346 -0.17543,-1.26631 -0.27674,-0.7566 -1.14555,-1.27403 -2.13232,-1.27403 -0.5225,0 -1.13044,0.13784 -1.60076,0.37958 -0.38109,0.20802 -0.67599,0.41603 -1.02306,0.65785 0,-0.36401 -0.12249,-0.74624 -0.32892,-1.1076 l -2.06503,0.5876 c 0.2087,0.59024 0.31304,1.31569 0.31304,2.0775 v 6.41187 h 2.32061 v -6.25844 c 0.54064,-0.48363 1.14934,-0.79569 1.6189,-0.79569 0.60794,0 0.77807,0.29126 0.77807,1.29746 v 5.75667 z m 11.40567,-7.88355 -0.97618,-1.47168 c -0.53535,0.48627 -1.19849,0.76446 -1.83819,0.76446 -0.29262,0 -0.60567,-0.0703 -1.09414,-0.19244 -0.64196,-0.15599 -1.09338,-0.22359 -1.5947,-0.22359 -2.27675,0 -3.74896,1.17527 -3.74896,2.99017 0,1.31304 0.62382,2.12688 1.9085,2.45444 -1.45935,0.37709 -1.63175,0.91531 -1.63175,1.48991 0,0.60325 0.26087,1.00106 0.67599,1.15448 0.41815,0.17421 1.09414,0.25996 2.13535,0.27818 l 0.98979,0.0182 c 0.92174,0.0156 1.63403,0.25482 1.63403,1.05565 0,0.36401 -0.22685,0.69157 -0.57392,0.89958 -0.36597,0.22367 -0.86956,0.29384 -1.45935,0.29384 -1.076,0 -1.66579,-0.38223 -1.66579,-1.08945 0,-0.24182 0.0159,-0.36658 0.10208,-0.57202 h -2.14896 c -0.0885,0.17164 -0.2087,0.41345 -0.2087,0.89966 0,0.60325 0.24273,1.12325 0.72817,1.57043 0.79622,0.74624 2.09906,0.95168 3.36787,0.95168 1.38903,0 2.72514,-0.30941 3.50623,-1.1389 0.48242,-0.51735 0.71002,-1.08945 0.71002,-1.83304 0,-0.79562 -0.24272,-1.40144 -0.76219,-1.88507 -0.62684,-0.56945 -1.33686,-0.77747 -2.69187,-0.79304 l -1.25066,-0.0182 c -0.24273,0 -0.3811,-0.0858 -0.3811,-0.20801 0,-0.24182 0.32892,-0.44983 0.91947,-0.72802 0.17467,0.0182 0.24272,0.0182 0.34707,0.0182 1.8949,0 3.28166,-1.10511 3.28166,-2.62617 0,-0.5876 -0.1724,-1.04 -0.51947,-1.45346 0.13838,0.0182 0.3811,0.052 0.60794,0.052 0.64197,0 1.12817,-0.19244 1.63176,-0.65785 z m -4.11418,1.8825 c 0,0.8164 -0.50434,1.26623 -1.42835,1.26623 -0.8121,0 -1.36787,-0.364 -1.36787,-1.26623 0,-0.82942 0.5036,-1.31305 1.38904,-1.31305 0.88469,0 1.40718,0.48363 1.40718,1.31305 z m 12.22004,2.30109 v -0.53565 c 0,-1.84862 -0.36522,-3.04469 -1.18261,-3.87153 -0.57164,-0.58768 -1.54556,-0.93603 -2.57164,-0.93603 -1.17732,0 -2.06503,0.38215 -2.79093,1.19085 -0.77731,0.86321 -1.10926,1.92408 -1.10926,3.51274 0,2.78216 1.64764,4.5814 4.19811,4.5814 1.25066,0 2.3259,-0.40045 3.35198,-1.22465 l -0.90359,-1.38329 c -0.71229,0.58503 -1.45936,0.88144 -2.25784,0.88144 -1.19849,0 -1.87448,-0.77739 -1.87448,-2.14511 v -0.0702 z m -2.41512,-1.6927 h -2.69112 v -0.0338 c 0,-1.23244 0.50359,-1.92144 1.38904,-1.92144 0.46956,0 0.79849,0.17157 1.02533,0.51743 0.20945,0.33021 0.27675,0.67599 0.27675,1.33384 z m 11.59697,5.39266 v -6.46646 c 0,-0.55388 -0.0522,-0.93346 -0.1724,-1.26631 -0.27675,-0.7566 -1.14329,-1.27403 -2.13308,-1.27403 -0.52174,0 -1.13043,0.13784 -1.6,0.37958 -0.37883,0.20802 -0.67675,0.41603 -1.02382,0.65785 0,-0.36401 -0.12022,-0.74624 -0.32892,-1.1076 l -2.06503,0.5876 c 0.2087,0.59024 0.3138,1.31569 0.3138,2.0775 v 6.41187 h 2.32288 v -6.25844 c 0.54064,-0.48363 1.14631,-0.79569 1.61587,-0.79569 0.6087,0 0.78337,0.29126 0.78337,1.29746 v 5.75667 z"
     style="color:#2f2abf;line-height:0px;text-decoration:none;text-decoration-line:none;text-decoration-style:solid;text-decoration-color:#2f2abf;fill:#ffffff;fill-rule:evenodd;stroke:none;stroke-width:0.756144"
     id="path12" />
  <path
     d="m 43.621467,69.78949 h -6.542232 v 12.015198 h 2.42788 v -5.343289 h 3.072711 v -1.965671 h -3.072711 v -2.753497 h 3.837626 z m 10.382465,8.091569 V 69.78949 h -2.464423 v 7.693761 c 0,0.639622 0,0.813838 -0.03395,1.073876 -0.104424,0.881436 -0.780567,1.398865 -1.843101,1.398865 -0.798865,0 -1.370586,-0.293837 -1.649905,-0.829489 -0.138374,-0.259962 -0.206276,-0.691569 -0.206276,-1.435236 V 69.78949 H 45.32363 v 8.3724 c 0,1.154481 0.122647,1.640681 0.522118,2.26208 0.676143,1.053081 2.028431,1.606881 3.86896,1.606881 2.605369,0 3.785406,-1.313044 4.098677,-2.264726 0.172249,-0.514783 0.190548,-0.743592 0.190547,-1.885066 z m -4.845293,-9.823214 c 0,-0.720227 -0.590019,-1.328696 -1.300113,-1.328696 -0.730965,0 -1.354934,0.608469 -1.354934,1.328696 0,0.728015 0.608317,1.333837 1.318412,1.333837 0.730964,0 1.336635,-0.605822 1.336635,-1.333837 z m 3.647032,0 c 0,-0.720227 -0.590019,-1.328696 -1.302684,-1.328696 -0.728393,0 -1.354934,0.608469 -1.354934,1.328696 0,0.728015 0.608242,1.333837 1.320983,1.333837 0.728317,0 1.336635,-0.605822 1.336635,-1.333837 z m 12.343062,13.746843 c -0.433421,-0.76189 -2.271304,-3.88983 -2.897845,-4.667221 -0.156597,-0.208015 -0.26102,-0.312061 -0.503818,-0.501853 1.490662,-0.03637 2.688922,-1.521058 2.688922,-3.320378 0,-2.108658 -1.404536,-3.525746 -3.540037,-3.525746 h -4.495501 v 12.015198 h 2.375727 v -5.013081 c 0.156598,0.01565 0.261021,0.05202 0.383743,0.101399 0.433346,0.195009 0.798866,0.780037 1.997127,2.940794 0.469943,0.847637 0.660492,1.175198 1.127788,1.970888 z m -3.263289,-8.437429 c 0,0.501853 -0.172325,0.933459 -0.467297,1.209074 -0.328998,0.293837 -0.780642,0.397807 -1.824877,0.397807 h -0.817089 v -3.250132 h 0.869339 c 0.589943,0 1.096408,0.07017 1.373157,0.176786 0.57172,0.205444 0.866767,0.722873 0.866767,1.466465 z M 79.749943,81.804688 75.946238,69.75569 h -2.621021 l -3.957731,12.048998 h 2.534896 l 0.85104,-2.852401 h 3.540037 l 0.85104,2.852401 z M 75.70344,76.947599 h -2.36 c 0.261097,-0.795614 0.415123,-1.362419 0.642269,-2.22828 0.208847,-0.798185 0.503818,-2.041058 0.57172,-2.319319 l 0.48552,2.126957 c 0.193195,0.831984 0.574367,2.16068 0.660491,2.420642 z m 13.852023,4.857089 V 69.78949 h -2.307826 l 0.05225,4.911606 c 0.01822,0.826844 0.104423,2.366125 0.193194,3.299585 C 87.247637,77.137467 86.78034,75.8738 86.172098,74.599698 L 83.861701,69.78949 h -2.688998 v 12.015198 h 2.341777 l -0.07047,-5.135274 c -0.01573,-1.00363 -0.03395,-2.418072 -0.120152,-3.403554 0.224575,0.743667 0.955539,2.436295 1.631683,3.941777 l 2.067599,4.597051 z M 101.22238,80.8738 v -5.73845 h -4.670471 l 0.315917,1.968317 h 1.837883 v 2.732704 c -0.396824,0.205368 -0.832817,0.296408 -1.370586,0.296408 -0.783214,0 -1.443705,-0.244386 -1.892703,-0.678639 -0.608242,-0.605822 -0.90329,-1.710851 -0.90329,-3.424348 0,-1.796673 0.208847,-3.09414 1.023365,-3.874178 0.417694,-0.397807 1.023365,-0.600605 1.738677,-0.600605 0.918941,0 1.736106,0.291191 2.516673,0.930813 l 1.281815,-1.505482 c -1.05732,-0.915236 -2.375652,-1.378072 -3.83501,-1.378072 -1.146087,0 -2.049376,0.257467 -2.934366,0.842496 -1.68121,1.125822 -2.516598,2.922495 -2.516598,5.465406 0,1.796673 0.399395,3.078563 1.284386,4.204386 0.971191,1.240302 2.307826,1.827901 4.116975,1.827901 1.42276,0 2.775123,-0.345784 4.007333,-1.068657 z m 9.63577,0.930888 v -2.072363 h -4.56598 v -3.218903 h 3.41997 v -1.968318 h -3.41997 v -2.787297 h 4.09611 l 0.31327,-1.968317 h -6.8738 v 12.015198 z m 15.4859,-12.015198 h -2.55275 l -0.98979,4.565822 c -0.26087,1.157051 -0.62382,3.559546 -0.66011,3.973006 -0.034,-0.189792 -0.2949,-2.090511 -0.51947,-3.164386 l -1.11229,-5.374442 h -2.65482 l -1.07826,4.859659 c -0.36295,1.622458 -0.57165,3.320303 -0.62382,3.819584 -0.034,-0.241814 -0.19055,-1.851342 -0.64272,-3.941776 l -1.04121,-4.737467 h -2.569 l 2.88204,12.119168 h 2.75917 l 1.00794,-4.924613 c 0.31078,-1.541852 0.51947,-3.023969 0.57164,-3.354177 0.034,0.465406 0.24273,1.916295 0.57467,3.38533 l 1.07524,4.89346 h 2.65558 z m 10.03327,12.015198 -3.80114,-12.048998 h -2.62155 l -3.95765,12.048998 h 2.53232 l 0.85142,-2.852401 h 3.54253 l 0.85066,2.852401 z m -4.04386,-4.857089 h -2.36295 c 0.26087,-0.795614 0.41739,-1.362419 0.64197,-2.22828 0.20945,-0.798185 0.50434,-2.041058 0.57467,-2.319319 l 0.48544,2.126957 c 0.19055,0.831984 0.57467,2.16068 0.66087,2.420642 z m 13.8518,4.857089 V 69.78949 h -2.30549 l 0.0522,4.911606 c 0.0159,0.826844 0.10434,2.366125 0.19055,3.299585 -0.24273,-0.863214 -0.71229,-2.126881 -1.32099,-3.400983 l -2.31002,-4.810208 h -2.68884 v 12.015198 h 2.34177 l -0.0711,-5.135274 c -0.0181,-1.00363 -0.0333,-2.418072 -0.11947,-3.403554 0.22457,0.743667 0.955,2.436295 1.63175,3.941777 l 2.0673,4.597051 z M 157.78147,75.84 c 0,-2.160681 -0.53535,-3.699962 -1.64688,-4.789414 -0.72892,-0.725444 -1.61361,-1.102457 -2.63969,-1.190851 -0.48545,-0.0338 -1.40416,-0.07024 -2.10133,-0.07024 h -2.42797 v 12.015198 h 2.93156 c 0.71305,0 1.28469,-0.03387 1.73611,-0.06767 1.13044,-0.08575 2.20567,-0.741021 2.93459,-1.726427 0.81437,-1.089452 1.21361,-2.527335 1.21361,-4.170586 z m -2.72287,0.223592 c 0,2.548128 -0.73119,3.772779 -2.3259,3.772779 h -1.3051 v -8.146163 h 1.11153 c 0.95577,0 1.51153,0.345784 1.91153,1.003629 0.48545,0.793044 0.60794,1.970889 0.60794,3.369755 z m 12.25407,-6.274102 h -8.69339 v 2.004688 h 2.95047 v 10.01051 h 2.46201 v -10.01051 h 2.88166 z m 8.59432,12.015198 v -2.072363 h -4.56559 v -3.218903 h 3.42004 v -1.968318 h -3.42004 v -2.787297 h 4.09603 l 0.31304,-1.968317 h -6.87334 V 81.804688 Z M 194.53384,69.78949 h -2.55048 l -0.98903,4.565822 c -0.26163,1.157051 -0.62684,3.559546 -0.66087,3.973006 -0.034,-0.189792 -0.2949,-2.090511 -0.52174,-3.164386 L 188.7017,69.78949 h -2.65709 l -1.07599,4.859659 c -0.36522,1.622458 -0.57164,3.320303 -0.62382,3.819584 -0.0363,-0.241814 -0.19357,-1.851342 -0.64196,-3.941776 l -1.04197,-4.737467 h -2.57165 l 2.88242,12.119168 h 2.7622 l 1.00491,-4.924613 c 0.31305,-1.541852 0.52174,-3.023969 0.57392,-3.354177 0.034,0.465406 0.24347,1.916295 0.5724,3.38533 l 1.07523,4.89346 h 2.65785 z m 1.91077,12.015198 h 2.53233 V 69.78949 h -2.53233 z m 13.71116,-3.785784 c 0,-1.781097 -1.07297,-3.044764 -3.0518,-3.580416 l -1.45936,-0.397807 c -1.00718,-0.275615 -1.33913,-0.5876 -1.33913,-1.208999 0,-0.813837 0.6949,-1.380718 1.6862,-1.380718 0.90359,0 1.71796,0.25482 2.8121,0.912665 l 1.14631,-1.729073 c -1.05784,-0.759244 -2.55122,-1.209074 -4.0257,-1.209074 -2.5535,0 -4.32363,1.521059 -4.32363,3.715614 0,0.675993 0.1724,1.297392 0.50434,1.833044 0.43327,0.728015 1.17959,1.193421 2.37505,1.523705 l 1.33989,0.366578 c 1.07523,0.291191 1.57883,0.777467 1.57883,1.552288 0,1.073875 -0.73044,1.643251 -2.11947,1.643251 -1.21664,0 -2.18526,-0.377013 -3.31569,-0.967259 l -0.90057,1.885142 c 1.21436,0.688998 2.74102,1.089452 4.11418,1.089452 3.00264,0 4.97845,-1.606881 4.97845,-4.048393 z m 10.13988,0 c 0,-1.781097 -1.07523,-3.044764 -3.05406,-3.580416 l -1.45709,-0.397807 c -1.01021,-0.275615 -1.33913,-0.5876 -1.33913,-1.208999 0,-0.813837 0.69414,-1.380718 1.6862,-1.380718 0.90359,0 1.71796,0.25482 2.8121,0.912665 l 1.14329,-1.729073 c -1.05709,-0.759244 -2.55048,-1.209074 -4.02571,-1.209074 -2.55047,0 -4.32288,1.521059 -4.32288,3.715614 0,0.675993 0.17467,1.297392 0.5036,1.833044 0.43327,0.728015 1.17958,1.193421 2.37807,1.523705 l 1.33686,0.366578 c 1.07826,0.291191 1.57958,0.777467 1.57958,1.552288 0,1.073875 -0.72892,1.643251 -2.1172,1.643251 -1.21663,0 -2.18828,-0.377013 -3.31569,-0.967259 L 211.2,80.977845 c 1.21664,0.688998 2.74178,1.089452 4.11493,1.089452 3.00416,0 4.98072,-1.606881 4.98072,-4.048393 z m 8.9414,3.785784 v -2.072363 h -4.56559 v -3.218903 h 3.41928 v -1.968318 h -3.41928 v -2.787297 h 4.09603 l 0.31304,-1.968317 h -6.8741 v 12.015198 z m 10.64121,0 V 69.78949 h -2.30775 l 0.0522,4.911606 c 0.0181,0.826844 0.10435,2.366125 0.19282,3.299585 -0.24499,-0.863214 -0.71229,-2.126881 -1.32098,-3.400983 L 234.1845,69.78949 h -2.6896 v 12.015198 h 2.34177 l -0.0703,-5.135274 c -0.0159,-1.00363 -0.034,-2.418072 -0.12023,-3.403554 0.22458,0.743667 0.95577,2.436295 1.63176,3.941777 l 2.06806,4.597051 z m 11.1811,-3.785784 c 0,-1.781097 -1.076,-3.044764 -3.05482,-3.580416 l -1.45936,-0.397807 c -1.00718,-0.275615 -1.33611,-0.5876 -1.33611,-1.208999 0,-0.813837 0.69414,-1.380718 1.6862,-1.380718 0.90057,0 1.71796,0.25482 2.80908,0.912665 l 1.14631,-1.729073 c -1.06011,-0.759244 -2.55047,-1.209074 -4.02571,-1.209074 -2.55349,0 -4.32363,1.521059 -4.32363,3.715614 0,0.675993 0.17543,1.297392 0.50435,1.833044 0.43327,0.728015 1.17732,1.193421 2.3758,1.523705 l 1.33611,0.366578 c 1.07826,0.291191 1.58261,0.777467 1.58261,1.552288 0,1.073875 -0.72892,1.643251 -2.12023,1.643251 -1.21361,0 -2.18752,-0.377013 -3.31266,-0.967259 l -0.90359,1.885142 c 1.21436,0.688998 2.74102,1.089452 4.1119,1.089452 3.00492,0 4.98375,-1.606881 4.98375,-4.048393 z m 10.31228,2.873119 -1.11228,-1.521059 c -0.71002,0.569376 -1.35274,0.77482 -2.06503,0.77482 -1.04197,0 -1.84045,-0.462835 -2.3259,-1.346843 -0.36597,-0.657845 -0.50435,-1.575727 -0.50435,-3.216332 0,-1.404083 0.2087,-2.402571 0.676,-3.096787 0.43629,-0.639622 1.23478,-1.034858 2.0499,-1.034858 0.67599,0 1.32098,0.223592 1.92666,0.670851 l 1.09338,-1.640681 c -0.65785,-0.569452 -1.85633,-0.951607 -3.05407,-0.951607 -1.9448,0 -3.6809,1.03743 -4.6155,2.784726 -0.55652,1.034783 -0.81739,2.22828 -0.81739,3.733762 0,1.765444 0.48545,3.218904 1.45709,4.305785 0.98904,1.123251 2.27373,1.658828 3.94178,1.658828 1.37013,0 2.39395,-0.345785 3.34971,-1.120605 z m 10.12099,0.912665 V 69.78949 h -2.46427 v 4.669867 h -3.47222 V 69.78949 h -2.41209 v 12.015198 h 2.41209 v -5.356295 h 3.47222 v 5.356295 z m 11.80567,0 -3.80114,-12.048998 h -2.62381 l -3.95766,12.048998 h 2.53459 l 0.85142,-2.852401 h 3.54253 l 0.8484,2.852401 z m -4.04688,-4.857089 h -2.35993 c 0.26087,-0.795614 0.41739,-1.362419 0.64197,-2.22828 0.20945,-0.798185 0.50435,-2.041058 0.57467,-2.319319 l 0.48544,2.126957 c 0.19055,0.831984 0.57165,2.16068 0.65785,2.420642 z m 12.01436,-7.158109 h -6.54215 v 12.015198 h 2.42798 v -5.343289 h 3.07221 v -1.965671 h -3.07221 v -2.753497 h 3.8344 z m 9.86012,0 h -8.69565 v 2.004688 h 2.94971 v 10.01051 h 2.46427 v -10.01051 h 2.88242 z m 13.69527,8.091569 V 69.78949 h -2.462 v 7.693761 c 0,0.639622 0,0.813838 -0.0333,1.073876 -0.10511,0.881436 -0.78337,1.398865 -1.84348,1.398865 -0.79849,0 -1.37089,-0.293837 -1.64991,-0.829489 -0.13837,-0.259962 -0.20869,-0.691569 -0.20869,-1.435236 V 69.78949 h -2.48015 v 8.3724 c 0,1.154481 0.12249,1.640681 0.51947,2.26208 0.67599,1.053081 2.031,1.606881 3.87145,1.606881 2.60567,0 3.78526,-1.313044 4.09603,-2.264726 0.1724,-0.514783 0.19055,-0.743592 0.19055,-1.885066 z m 10.78185,3.923629 V 69.78949 h -2.30472 l 0.0491,4.911606 c 0.0181,0.826844 0.10435,2.366125 0.19055,3.299585 -0.2397,-0.863214 -0.71229,-2.126881 -1.31796,-3.400983 l -2.31305,-4.810208 h -2.68657 v 12.015198 h 2.3395 l -0.068,-5.135274 c -0.0181,-1.00363 -0.034,-2.418072 -0.12325,-3.403554 0.2276,0.743667 0.95879,2.436295 1.63478,3.941777 l 2.0673,4.597051 z M 337.19924,75.84 c 0,-2.160681 -0.53761,-3.699962 -1.64688,-4.789414 -0.73119,-0.725444 -1.61588,-1.102457 -2.63969,-1.190851 -0.48545,-0.0338 -1.40719,-0.07024 -2.10133,-0.07024 h -2.43024 v 12.015198 h 2.93157 c 0.71531,0 1.28695,-0.03387 1.73837,-0.06767 1.12817,-0.08575 2.20643,-0.741021 2.93459,-1.726427 0.81437,-1.089452 1.21361,-2.527335 1.21361,-4.170586 z m -2.72514,0.223592 c 0,2.548128 -0.72816,3.772779 -2.32363,3.772779 h -1.3051 v -8.146163 h 1.11229 c 0.95501,0 1.51153,0.345784 1.91077,1.003629 0.48545,0.793044 0.60567,1.970889 0.60567,3.369755 z m 18.15652,5.741096 -4.28884,-6.445747 3.85557,-5.569451 h -2.98601 l -3.43818,5.478487 V 69.78949 h -2.47789 v 12.015198 h 2.47789 V 75.52794 l 3.66276,6.276748 z m 9.86087,-3.923629 V 69.78949 h -2.462 v 7.693761 c 0,0.639622 0,0.813838 -0.034,1.073876 -0.10434,0.881436 -0.78336,1.398865 -1.84272,1.398865 -0.79924,0 -1.37316,-0.293837 -1.6499,-0.829489 -0.13838,-0.259962 -0.20946,-0.691569 -0.20946,-1.435236 V 69.78949 h -2.47712 v 8.3724 c 0,1.154481 0.12022,1.640681 0.5172,2.26208 0.67826,1.053081 2.031,1.606881 3.87145,1.606881 2.60492,0 3.78526,-1.313044 4.09604,-2.264726 0.17466,-0.514783 0.19054,-0.743592 0.19054,-1.885066 z m 11.12893,3.923629 V 69.78949 h -2.30775 l 0.0522,4.911606 c 0.0181,0.826844 0.10435,2.366125 0.19055,3.299585 -0.24272,-0.863214 -0.71002,-2.126881 -1.31796,-3.400983 l -2.31078,-4.810208 h -2.68884 v 12.015198 h 2.34177 l -0.0703,-5.135274 c -0.0189,-1.00363 -0.034,-2.418072 -0.12325,-3.403554 0.2276,0.743667 0.95577,2.436295 1.63478,3.941777 l 2.0673,4.597051 z m 11.17882,-3.785784 c 0,-1.781097 -1.07296,-3.044764 -3.05179,-3.580416 l -1.45936,-0.397807 c -1.00794,-0.275615 -1.33913,-0.5876 -1.33913,-1.208999 0,-0.813837 0.69414,-1.380718 1.6862,-1.380718 0.90359,0 1.71796,0.25482 2.81134,0.912665 l 1.14632,-1.729073 c -1.05709,-0.759244 -2.55048,-1.209074 -4.02571,-1.209074 -2.55274,0 -4.32288,1.521059 -4.32288,3.715614 0,0.675993 0.17241,1.297392 0.5036,1.833044 0.43629,0.728015 1.18034,1.193421 2.3758,1.523705 l 1.33913,0.366578 c 1.07599,0.291191 1.57958,0.777467 1.57958,1.552288 0,1.073875 -0.73119,1.643251 -2.12022,1.643251 -1.21588,0 -2.1845,-0.377013 -3.31494,-0.967259 l -0.90056,1.885142 c 1.21361,0.688998 2.74102,1.089452 4.11115,1.089452 3.00491,0 4.98147,-1.606881 4.98147,-4.048393 z m 9.56749,-8.229414 h -8.69565 v 2.004688 h 2.94971 v 10.01051 h 2.46503 v -10.01051 h 2.88167 z"
     style="color:#2f2abf;line-height:0px;text-decoration:none;text-decoration-line:none;text-decoration-style:solid;text-decoration-color:#2f2abf;fill:#ffffff;fill-rule:evenodd;stroke:none;stroke-width:0.756144"
     id="path14" />
</svg>
